<svg width="23" height="24" viewBox="0 0 23 24" fill="none" xmlns="http://www.w3.org/2000/svg">
<path d="M20.78 14.86C20.6358 14.8626 20.4985 14.9217 20.3975 15.0246C20.2965 15.1275 20.2399 15.2659 20.24 15.41V20.28C20.2347 20.7151 20.0589 21.1307 19.7503 21.4374C19.4417 21.7441 19.0251 21.9174 18.59 21.92H3.20997C2.9946 21.92 2.78134 21.8776 2.58237 21.7952C2.38339 21.7127 2.2026 21.592 2.05032 21.4397C1.89803 21.2874 1.77722 21.1066 1.69481 20.9076C1.61239 20.7086 1.56997 20.4954 1.56997 20.28V6C1.56864 5.78426 1.61016 5.57039 1.6921 5.37082C1.77405 5.17125 1.8948 4.98993 2.04736 4.83737C2.19991 4.68482 2.38123 4.56409 2.5808 4.48215C2.78038 4.4002 2.99423 4.35866 3.20997 4.35999H8.07997C8.22584 4.35999 8.36573 4.30206 8.46888 4.19891C8.57202 4.09577 8.62997 3.95587 8.62997 3.81C8.62997 3.66413 8.57202 3.52423 8.46888 3.42108C8.36573 3.31794 8.22584 3.26001 8.07997 3.26001H3.20997C2.85015 3.26001 2.49385 3.33087 2.16142 3.46857C1.82898 3.60626 1.52693 3.8081 1.2725 4.06253C1.01806 4.31696 0.816237 4.61901 0.678539 4.95145C0.540841 5.28388 0.469971 5.64018 0.469971 6V20.29C0.48045 21.0107 0.773432 21.6984 1.28587 22.2052C1.79831 22.7121 2.48923 22.9975 3.20997 23H18.59C19.3159 22.9974 20.0113 22.7078 20.5245 22.1945C21.0378 21.6813 21.3273 20.9859 21.33 20.26V15.39C21.3248 15.2476 21.2646 15.1128 21.162 15.0139C21.0594 14.9151 20.9224 14.8599 20.78 14.86Z" fill="#929293" stroke="#929293" stroke-width="0.75" stroke-miterlimit="10"/>
<path d="M21.12 1.84C20.6569 1.37773 20.0293 1.1181 19.375 1.1181C18.7207 1.1181 18.0931 1.37773 17.63 1.84L7.84997 11.62C7.78113 11.6848 7.73251 11.7682 7.70997 11.86L6.41997 16.5C6.39408 16.5944 6.39338 16.6939 6.41795 16.7887C6.44251 16.8834 6.49148 16.9701 6.55998 17.04C6.62836 17.1077 6.71329 17.1562 6.80629 17.1807C6.89929 17.2053 6.9971 17.205 7.08997 17.18L11.74 15.89C11.8318 15.8675 11.9152 15.8188 11.98 15.75L21.76 6C22.2222 5.53691 22.4819 4.90933 22.4819 4.255C22.4819 3.60068 22.2222 2.9731 21.76 2.51001L21.12 1.84ZM8.99997 12L17 4L19.58 6.57999L11.58 14.58L8.99997 12ZM8.48998 13L10.55 15.06L7.69997 15.85L8.48998 13ZM21 5.20001L20.42 5.78L17.84 3.20001L18.42 2.60999C18.6783 2.35472 19.0268 2.21158 19.39 2.21158C19.7531 2.21158 20.1017 2.35472 20.36 2.60999L21 3.26001C21.1288 3.38659 21.2311 3.53756 21.3009 3.7041C21.3708 3.87064 21.4067 4.04942 21.4067 4.23001C21.4067 4.4106 21.3708 4.58938 21.3009 4.75592C21.2311 4.92246 21.1288 5.07343 21 5.20001Z" fill="#929293" stroke="#929293" stroke-width="0.75" stroke-miterlimit="10"/>
</svg>
