<svg width="12" height="12" viewBox="0 0 12 12" fill="none" xmlns="http://www.w3.org/2000/svg">
<path d="M9.37 0.0100098H3.38C1.9275 0.0100098 0.75 1.18751 0.75 2.64001V8.63C0.75 10.0825 1.9275 11.26 3.38 11.26H9.37C10.8225 11.26 12 10.0825 12 8.63V2.64001C12 1.18751 10.8225 0.0100098 9.37 0.0100098Z" fill="#E0E0E0"/>
<path d="M7.19003 5.63004L10.62 2.19003C10.6748 2.13774 10.7184 2.07489 10.7482 2.00528C10.7779 1.93567 10.7933 1.86075 10.7933 1.78503C10.7933 1.70932 10.7779 1.6344 10.7482 1.56479C10.7184 1.49518 10.6748 1.43232 10.62 1.38004C10.5117 1.27436 10.3664 1.21521 10.215 1.21521C10.0637 1.21521 9.91836 1.27436 9.81003 1.38004L6.38004 4.82004L2.94003 1.38004C2.88685 1.32685 2.8237 1.28464 2.75421 1.25586C2.68472 1.22708 2.61025 1.21228 2.53503 1.21228C2.45982 1.21228 2.38533 1.22708 2.31584 1.25586C2.24635 1.28464 2.18322 1.32685 2.13004 1.38004C2.07685 1.43322 2.03466 1.49637 2.00587 1.56586C1.97709 1.63535 1.96228 1.70982 1.96228 1.78503C1.96228 1.86025 1.97709 1.93472 2.00587 2.00421C2.03466 2.0737 2.07685 2.13685 2.13004 2.19003L5.57004 5.63004L2.13004 9.07004C2.02436 9.17837 1.96521 9.3237 1.96521 9.47504C1.96521 9.62637 2.02436 9.77171 2.13004 9.88004C2.2373 9.98364 2.3809 10.0411 2.53003 10.04C2.60556 10.0419 2.68071 10.0287 2.7511 10.0012C2.82149 9.97372 2.88571 9.93255 2.94003 9.88004L6.38004 6.44003L9.81003 9.88004C9.92094 9.98425 10.0678 10.0416 10.22 10.04C10.3384 10.0456 10.4555 10.0141 10.5551 9.94995C10.6547 9.88585 10.7318 9.79232 10.7758 9.68234C10.8198 9.57237 10.8284 9.45142 10.8005 9.3363C10.7726 9.22119 10.7095 9.11764 10.62 9.04004L7.19003 5.63004Z" fill="#F7F8F9"/>
</svg>
