<svg width="24" height="24" viewBox="0 0 24 24" fill="none" xmlns="http://www.w3.org/2000/svg">
<path d="M22.34 13.16L13.51 4.32005C13.2811 4.08865 13.0085 3.90495 12.7082 3.77964C12.4078 3.65434 12.0855 3.58989 11.76 3.59004H11.6L5.20999 4.01005C4.87482 4.03128 4.5589 4.174 4.32142 4.41148C4.08395 4.64895 3.94122 4.96486 3.91999 5.30003L3.75999 7.57005C3.42646 7.37885 3.12035 7.14336 2.84999 6.87004C2.19131 6.23317 1.77123 5.3895 1.65999 4.48005C1.60569 4.10755 1.63689 3.72756 1.75124 3.36891C1.86559 3.01026 2.06009 2.68236 2.31999 2.41005C3.40999 1.33005 5.39999 1.57004 6.77999 2.94004C6.89215 3.04998 7.04294 3.11155 7.19999 3.11155C7.35704 3.11155 7.50783 3.04998 7.61999 2.94004C7.7293 2.82958 7.79062 2.68044 7.79062 2.52504C7.79062 2.36963 7.7293 2.22049 7.61999 2.11003C5.76999 0.280027 3.01999 0.0400286 1.47999 1.58003C1.10022 1.97391 0.813322 2.44774 0.640299 2.96681C0.467275 3.48588 0.412502 4.03706 0.47999 4.58003C0.60756 5.77119 1.14483 6.88109 1.99999 7.72004C2.47898 8.20293 3.0458 8.58985 3.66999 8.86003L3.47999 11.71C3.45696 12.0613 3.50928 12.4135 3.63346 12.7429C3.75764 13.0723 3.9508 13.3714 4.19999 13.62L13.04 22.46C13.3141 22.7346 13.64 22.952 13.9987 23.0997C14.3575 23.2473 14.742 23.3222 15.13 23.32C15.9121 23.3168 16.6621 23.0082 17.22 22.46L22.34 17.34C22.6176 17.0673 22.838 16.7421 22.9885 16.3832C23.139 16.0244 23.2165 15.6392 23.2165 15.25C23.2165 14.8609 23.139 14.4757 22.9885 14.1169C22.838 13.758 22.6176 13.4328 22.34 13.16ZM21.51 16.5L16.39 21.63C16.0544 21.9619 15.6019 22.1486 15.13 22.15C14.6581 22.1486 14.2056 21.9619 13.87 21.63L4.99999 12.7901C4.86772 12.661 4.7652 12.5047 4.69956 12.332C4.63393 12.1593 4.60677 11.9743 4.61999 11.7901L4.78999 9.21003H5.07999H5.51999C5.99328 9.22209 6.46423 9.13989 6.90545 8.96821C7.34666 8.79653 7.74932 8.5388 8.08999 8.21003C8.19993 8.09788 8.2615 7.9471 8.2615 7.79005C8.2615 7.633 8.19993 7.48219 8.08999 7.37004C7.97953 7.26073 7.8304 7.19941 7.67499 7.19941C7.51958 7.19941 7.37045 7.26073 7.25999 7.37004C6.98961 7.62975 6.66346 7.82422 6.30643 7.93861C5.9494 8.053 5.57095 8.08427 5.19999 8.03004L4.86999 7.98005L5.03999 5.35005C5.04672 5.29767 5.07126 5.2492 5.1095 5.21278C5.14774 5.17636 5.19735 5.1542 5.24999 5.15004L11.63 4.73005H11.72C11.8908 4.72985 12.0599 4.7633 12.2178 4.8285C12.3757 4.8937 12.5191 4.98936 12.64 5.11003L21.51 14C21.6754 14.1645 21.8066 14.3601 21.8962 14.5755C21.9857 14.7908 22.0318 15.0218 22.0318 15.255C22.0318 15.4883 21.9857 15.7193 21.8962 15.9346C21.8066 16.15 21.6754 16.3456 21.51 16.5101V16.5Z" fill="#929293" stroke="#929293" stroke-width="0.75" stroke-miterlimit="10"/>
</svg>
