<svg width="22" height="21" viewBox="0 0 22 21" fill="none" xmlns="http://www.w3.org/2000/svg">
<path d="M20.9957 10.5199C21.0369 5.15734 16.7231 0.776768 11.3606 0.735586C5.99804 0.694404 1.61746 5.00821 1.57628 10.3707C1.53509 15.7333 5.8489 20.1138 11.2114 20.155C16.574 20.1962 20.9545 15.8824 20.9957 10.5199Z" stroke="#64696D" stroke-miterlimit="10"/>
<path d="M11.29 14.56C9.89752 14.6032 8.53207 14.1692 7.42002 13.33C7.30002 13.24 7.14002 13.38 7.22002 13.5C7.72321 14.0872 8.3475 14.5585 9.05004 14.8817C9.75257 15.2049 10.5167 15.3722 11.29 15.3722C12.0633 15.3722 12.8275 15.2049 13.53 14.8817C14.2325 14.5585 14.8568 14.0872 15.36 13.5C15.44 13.38 15.28 13.24 15.16 13.33C14.0487 14.1707 12.6827 14.6048 11.29 14.56Z" fill="#64696D"/>
<path d="M7.61003 10.56C8.62071 10.56 9.44003 9.71382 9.44003 8.67C9.44003 7.62618 8.62071 6.78 7.61003 6.78C6.59935 6.78 5.78003 7.62618 5.78003 8.67C5.78003 9.71382 6.59935 10.56 7.61003 10.56Z" fill="#64696D"/>
<path d="M7.61004 8.62C7.99112 8.62 8.30004 8.31107 8.30004 7.92999C8.30004 7.54892 7.99112 7.23999 7.61004 7.23999C7.22897 7.23999 6.92004 7.54892 6.92004 7.92999C6.92004 8.31107 7.22897 8.62 7.61004 8.62Z" fill="white"/>
<path d="M16.8 8.67001C16.7863 9.02865 16.6674 9.37534 16.4582 9.66693C16.2489 9.95852 15.9585 10.1821 15.6232 10.31C15.2878 10.4378 14.9223 10.4642 14.572 10.3859C14.2218 10.3076 13.9023 10.128 13.6533 9.86951C13.4043 9.61101 13.2369 9.28501 13.1717 8.93207C13.1066 8.57912 13.1467 8.21482 13.287 7.88449C13.4274 7.55416 13.6617 7.27238 13.961 7.07422C14.2602 6.87606 14.6111 6.77028 14.97 6.77002C15.2151 6.77392 15.4571 6.82622 15.6819 6.92395C15.9068 7.02168 16.11 7.16289 16.2801 7.33946C16.4502 7.51604 16.5837 7.72449 16.6729 7.95284C16.7621 8.18118 16.8053 8.42491 16.8 8.67001Z" fill="#64696D"/>
<path d="M15.66 7.92999C15.66 8.11299 15.5873 8.28851 15.4579 8.41791C15.3285 8.54731 15.153 8.62 14.97 8.62C14.787 8.62 14.6115 8.54731 14.4821 8.41791C14.3527 8.28851 14.28 8.11299 14.28 7.92999C14.28 7.74699 14.3527 7.57149 14.4821 7.44209C14.6115 7.31269 14.787 7.23999 14.97 7.23999C15.153 7.23999 15.3285 7.31269 15.4579 7.44209C15.5873 7.57149 15.66 7.74699 15.66 7.92999Z" fill="white"/>
</svg>
