<svg width="18" height="17" viewBox="0 0 18 17" fill="none" xmlns="http://www.w3.org/2000/svg">
<path d="M16.76 15.09L12.81 10.98C13.7862 9.8119 14.3348 8.3458 14.3652 6.82381C14.3957 5.30182 13.9062 3.81496 12.9775 2.60875C12.0488 1.40255 10.7365 0.54914 9.25734 0.189443C7.77815 -0.170255 6.22051 -0.0147195 4.84166 0.63036C3.4628 1.27544 2.34518 2.37148 1.67334 3.73751C1.00151 5.10353 0.815644 6.65781 1.14644 8.14373C1.47724 9.62965 2.30491 10.9583 3.49279 11.9103C4.68067 12.8623 6.15771 13.3808 7.68 13.38C9.05598 13.3842 10.3988 12.9576 11.52 12.16L15.52 16.3C15.6013 16.3853 15.699 16.4532 15.8073 16.4997C15.9156 16.5461 16.0322 16.57 16.15 16.57C16.373 16.568 16.5871 16.4824 16.75 16.33C16.915 16.1665 17.0086 15.9443 17.0105 15.7121C17.0124 15.4798 16.9223 15.2561 16.76 15.09ZM7.68 1.73C8.65683 1.73987 9.6089 2.03855 10.4163 2.58843C11.2237 3.13831 11.8504 3.91477 12.2174 4.82009C12.5844 5.72541 12.6753 6.7191 12.4787 7.67598C12.2821 8.63287 11.8068 9.51019 11.1125 10.1975C10.4183 10.8847 9.53627 11.3512 8.57745 11.5382C7.61864 11.7252 6.62593 11.6243 5.72435 11.2482C4.82277 10.8721 4.05261 10.2377 3.51088 9.42479C2.96915 8.61189 2.68005 7.65686 2.68 6.67998C2.69318 5.36258 3.22577 4.10364 4.16203 3.17675C5.09828 2.24985 6.36254 1.72993 7.68 1.73Z" fill="#A8A8A8"/>
</svg>
